Coordinates
version=1
nRows=13
nColumns=63
inDegrees=yes

Units are S.I. units (second, meters, Newtons, ...)
If the header above contains a line with 'inDegrees', this indicates whether rotational values are in degrees (yes) or radians (no).

endheader
time	pelvis_tilt	pelvis_list	pelvis_rotation	pelvis_tx	pelvis_ty	pelvis_tz	hip_flexion_r	hip_adduction_r	hip_rotation_r	knee_angle_r	knee_angle_r_beta	ankle_angle_r	subtalar_angle_r	mtp_angle_r	hip_flexion_l	hip_adduction_l	hip_rotation_l	knee_angle_l	knee_angle_l_beta	ankle_angle_l	subtalar_angle_l	mtp_angle_l	L5_S1_Flex_Ext	L5_S1_Lat_Bending	L5_S1_axial_rotation	L4_L5_Flex_Ext	L4_L5_Lat_Bending	L4_L5_axial_rotation	L3_L4_Flex_Ext	L3_L4_Lat_Bending	L3_L4_axial_rotation	L2_L3_Flex_Ext	L2_L3_Lat_Bending	L2_L3_axial_rotation	L1_L2_Flex_Ext	L1_L2_Lat_Bending	L1_L2_axial_rotation	L1_T12_Flex_Ext	L1_T12_Lat_Bending	L1_T12_axial_rotation	Abs_r3	Abs_r2	Abs_r1	Abs_t1	Abs_t2	neck_flexion	neck_bending	neck_rotation	arm_flex_r	arm_add_r	arm_rot_r	elbow_flex_r	pro_sup_r	wrist_flex_r	wrist_dev_r	arm_flex_l	arm_add_l	arm_rot_l	elbow_flex_l	pro_sup_l	wrist_flex_l	wrist_dev_l
4.050000	-1.672602	-9.704914	88.587224	0.178628	1.003291	0.410261	9.951498	-3.816976	-3.256403	16.460398	0.287288	28.406383	2.362350	0.000000	5.560494	2.370157	11.501258	6.200554	0.108220	18.831063	-15.853470	0.000000	0.108915	-0.190455	0.107075	0.202266	-0.253306	0.113767	0.178937	-0.463073	0.113767	0.124479	-0.463073	0.093690	0.101138	-0.388377	0.086998	0.062234	-0.295015	0.080306	0.777969	-2.154469	0.595518	0.000000	0.000000	27.988831	3.520132	-1.596547	19.337205	-8.907738	86.553731	34.919709	70.840898	-16.091587	-3.443211	8.962390	-11.492491	46.658224	47.348152	73.707972	4.587171	6.729482
4.066667	-1.838615	-10.004480	88.435550	0.179463	1.003017	0.410629	10.153589	-3.989458	-3.421953	16.218436	0.283065	28.496447	3.195126	0.000000	5.824329	2.462704	11.260276	6.000471	0.104728	18.676940	-15.867347	0.000000	0.139827	-0.211282	0.210928	0.259673	-0.281005	0.224111	0.229722	-0.513711	0.224111	0.159809	-0.513711	0.184562	0.129844	-0.430846	0.171379	0.079897	-0.327276	0.158196	0.998772	-2.390064	1.173119	0.000000	0.000000	28.093871	3.523990	-2.172799	19.020275	-8.667612	84.893219	33.399631	65.922907	-13.810767	-3.204614	9.520090	-11.437113	42.178457	46.717690	77.343472	2.821115	5.607751
4.083333	-1.981339	-10.277722	88.321975	0.180269	1.002861	0.410762	10.278759	-4.132464	-3.593277	15.906551	0.277622	28.508193	3.963878	0.000000	6.018841	2.530049	11.073685	5.743039	0.100235	18.451916	-15.911059	0.000000	0.168926	-0.230441	0.307694	0.313713	-0.306487	0.326925	0.277529	-0.560294	0.326925	0.193066	-0.560294	0.269232	0.156865	-0.469915	0.250002	0.096524	-0.356953	0.230771	1.206623	-2.606795	1.711303	0.000000	0.000000	28.167902	3.584124	-2.747276	18.812605	-8.453094	84.005092	31.679047	60.423836	-11.521243	-3.053911	10.274639	-11.163654	41.368143	45.055082	78.889858	0.623832	4.266347
4.100000	-2.097399	-10.523512	88.240802	0.181051	1.002794	0.410651	10.329739	-4.239770	-3.749621	15.529145	0.271035	28.431614	4.635287	0.000000	6.148789	2.571383	10.934176	5.449010	0.095103	18.184577	-15.956012	0.000000	0.195985	-0.247310	0.397558	0.363965	-0.328923	0.422405	0.321985	-0.601310	0.422405	0.223992	-0.601310	0.347863	0.181992	-0.504315	0.323015	0.111986	-0.383084	0.298168	1.399905	-2.797624	2.211096	0.000000	0.000000	28.221857	3.687975	-3.311144	18.667476	-8.280929	83.835912	29.818694	54.477630	-9.337226	-3.037524	11.174029	-10.734091	44.149651	42.515448	78.407711	-1.881506	2.905151
4.116667	-2.169365	-10.733639	88.214436	0.181735	1.002798	0.410317	10.297114	-4.296669	-3.913975	15.083888	0.263264	28.269670	5.189347	0.000000	6.206524	2.574136	10.895136	5.116861	0.089306	17.886980	-16.024113	0.000000	0.218988	-0.258792	0.485063	0.406683	-0.344194	0.515379	0.359776	-0.629227	0.515379	0.250282	-0.629227	0.424430	0.203352	-0.527729	0.394113	0.125130	-0.400869	0.363797	1.564211	-2.927509	2.697773	0.000000	0.000000	28.256240	3.783913	-3.889137	18.451251	-8.226960	84.008657	27.912948	48.273605	-7.191963	-3.090083	12.227027	-10.195340	49.726303	39.290221	76.364020	-4.435214	1.586962
4.133333	-2.190008	-10.930878	88.231495	0.182329	1.002812	0.409778	10.212007	-4.298023	-4.102231	14.576290	0.254404	28.043753	5.677356	0.000000	6.245794	2.537060	10.937334	4.817510	0.084081	17.587980	-16.103192	0.000000	0.242172	-0.262994	0.556895	0.449737	-0.349781	0.591700	0.397864	-0.639443	0.591700	0.276778	-0.639443	0.487283	0.224881	-0.536297	0.452477	0.138377	-0.407377	0.417671	1.729808	-2.975036	3.097280	0.000000	0.000000	28.274439	3.902554	-4.366985	18.211096	-8.255830	84.667332	25.957375	42.115027	-5.407916	-3.324656	13.322627	-9.621450	57.533793	35.604518	72.731709	-7.005732	0.329570
4.150000	-2.149516	-11.093484	88.317191	0.182809	1.002844	0.409098	10.055742	-4.228267	-4.270586	14.009546	0.244513	27.739457	5.998336	0.000000	6.240356	2.449334	11.116071	4.534128	0.079135	17.264954	-16.188705	0.000000	0.260916	-0.258567	0.612527	0.484547	-0.343894	0.650810	0.428659	-0.628680	0.650810	0.298201	-0.628680	0.535961	0.242287	-0.527270	0.497679	0.149087	-0.400521	0.459396	1.863696	-2.924964	3.406694	0.000000	0.000000	28.289357	4.014959	-4.732167	17.913649	-8.403925	85.825332	23.997985	36.032322	-3.869272	-3.628202	14.468204	-9.087424	66.475585	31.647528	68.273709	-9.388777	-0.759318
4.166667	-2.069090	-11.225095	88.452670	0.183227	1.002865	0.408328	9.853258	-4.118410	-4.485075	13.418394	0.234195	27.420630	6.283358	0.000000	6.213635	2.333642	11.375048	4.305519	0.075145	16.906722	-16.274421	0.000000	0.275949	-0.248783	0.647883	0.512464	-0.330882	0.688375	0.453356	-0.604892	0.688375	0.315382	-0.604892	0.566897	0.256246	-0.507319	0.526405	0.157677	-0.385366	0.485912	1.971074	-2.814288	3.603329	0.000000	0.000000	28.293979	4.147942	-4.991494	17.575925	-8.656042	87.396625	22.056848	30.374416	-2.759681	-4.071684	15.576325	-8.663536	76.210678	27.601594	62.972323	-11.496199	-1.523645
4.183333	-1.949598	-11.327079	88.641086	0.183602	1.002864	0.407536	9.620388	-3.960610	-4.682708	12.821217	0.223772	27.072547	6.419833	0.000000	6.178987	2.191245	11.743702	4.146055	0.072362	16.510287	-16.383969	0.000000	0.286672	-0.233681	0.654219	0.532378	-0.310796	0.695108	0.470973	-0.568172	0.695108	0.327637	-0.568172	0.572442	0.266203	-0.476523	0.531553	0.163804	-0.361972	0.490664	2.047667	-2.643448	3.638571	0.000000	0.000000	28.292720	4.331255	-5.065698	17.216330	-9.036571	89.307430	20.202249	25.428726	-2.123190	-4.554822	16.592753	-8.414437	86.751767	23.632590	56.368126	-13.256758	-1.995798
4.200000	-1.803962	-11.399778	88.858533	0.183979	1.002830	0.406787	9.380559	-3.765215	-4.837891	12.254714	0.213885	26.716767	6.396580	0.000000	6.150736	2.030356	12.130504	4.073867	0.071102	16.117523	-16.410582	0.000000	0.292814	-0.215696	0.635538	0.543785	-0.286876	0.675259	0.481064	-0.524444	0.675259	0.334657	-0.524444	0.556096	0.271907	-0.439848	0.516375	0.167314	-0.334114	0.476654	2.091541	-2.440001	3.534672	0.000000	0.000000	28.286446	4.553355	-5.003413	16.818667	-9.525664	91.814339	18.385025	21.236476	-2.013842	-5.063461	17.406774	-8.378296	96.484049	19.874649	49.892894	-14.607314	-2.105498
4.216667	-1.643341	-11.448939	89.074209	0.184390	1.002742	0.406168	9.162572	-3.548986	-4.983211	11.753453	0.205136	26.383109	6.303721	0.000000	6.135060	1.857477	12.519831	4.073255	0.071092	15.783091	-16.346297	0.000000	0.293917	-0.196461	0.604792	0.545833	-0.261293	0.642591	0.482876	-0.477675	0.642591	0.335917	-0.477675	0.529193	0.272931	-0.400623	0.491393	0.167944	-0.304318	0.453594	2.099418	-2.222405	3.363671	0.000000	0.000000	28.276884	4.772025	-4.886322	16.330356	-10.148762	94.558177	16.670163	18.054501	-2.383960	-5.603822	18.029298	-8.561298	105.282191	16.393021	43.680637	-15.440882	-1.853402
4.233333	-1.443762	-11.457730	89.350452	0.184776	1.002633	0.405648	8.924379	-3.276949	-5.020397	11.287687	0.197007	26.000535	5.925186	0.000000	6.123733	1.657976	13.022875	4.151118	0.072451	15.465885	-16.330282	0.000000	0.287712	-0.172021	0.537506	0.534310	-0.228787	0.571100	0.472682	-0.418251	0.571100	0.328826	-0.418251	0.470318	0.267169	-0.350784	0.436724	0.164399	-0.266460	0.403129	2.055097	-1.945932	2.989446	0.000000	0.000000	28.264016	5.015700	-4.543705	15.838971	-10.838325	97.829087	15.029338	16.068475	-3.316914	-6.062983	18.366001	-8.954595	112.953934	13.282858	37.796003	-15.814467	-1.297450
4.250000	-1.247669	-11.455252	89.585391	0.185214	1.002439	0.405274	8.738432	-3.012154	-5.106071	10.927174	0.190715	25.656246	5.616702	0.000000	6.141937	1.460617	13.438181	4.287294	0.074827	15.263129	-16.206460	0.000000	0.277578	-0.147874	0.478989	0.515491	-0.196672	0.508926	0.456034	-0.359540	0.508926	0.317244	-0.359540	0.419115	0.257759	-0.301544	0.389178	0.158608	-0.229056	0.359242	1.982715	-1.672776	2.663992	0.000000	0.000000	28.248494	5.165604	-4.255975	15.163495	-11.636596	100.795378	13.558198	14.172508	-4.310453	-6.865126	18.532481	-9.565858	119.500501	10.570396	31.785719	-15.720794	-0.481605
